<svg width="125" height="117" viewBox="0 0 125 117" fill="none" xmlns="http://www.w3.org/2000/svg">
<path d="M29.5162 30.7712C29.5162 30.7712 49.4478 40.4388 62.0887 28.6831C62.0887 28.6831 73.9118 39.5897 94.3979 31.1679C94.3979 31.1679 103.608 86.2577 62.2204 99.7883C62.2343 99.8092 22.6413 93.0439 29.5162 30.7712Z" fill="#F8AC26"/>
<path fill-rule="evenodd" clip-rule="evenodd" d="M30.4727 29.5461L28.7332 28.7387C28.7082 28.8868 28.6798 29.027 28.6525 29.1617C28.6119 29.3624 28.5738 29.5507 28.553 29.734C28.4699 30.5316 28.3942 31.3293 28.3185 32.1269C28.268 32.6586 28.2176 33.1904 28.1649 33.7222C28.1291 34.0962 28.0855 34.467 28.0421 34.8362C27.9765 35.3944 27.9114 35.9491 27.8739 36.5062C27.7976 37.766 27.7422 39.0258 27.7422 40.2926C27.6201 41.5068 27.6016 42.7293 27.6867 43.9467C27.7072 44.1945 27.7072 44.4436 27.6867 44.6914V46.501C27.7018 46.912 27.7364 47.3177 27.7708 47.7204C27.8156 48.2453 27.86 48.7652 27.86 49.2851C27.9059 51.2784 28.0633 53.2675 28.3313 55.243C28.5769 57.606 28.9681 59.9514 29.5025 62.2659C29.6632 62.8792 29.7889 63.5036 29.9148 64.1286C30.0332 64.7165 30.1517 65.3049 30.2995 65.8851C30.7707 67.9105 31.4638 69.8872 32.1568 71.85C33.0062 74.2425 34.0301 76.5688 35.22 78.8102C36.2373 80.7825 37.3954 82.6783 38.6852 84.4827C38.7748 84.6058 38.8722 84.7043 38.9729 84.8061C39.1057 84.9403 39.2442 85.0803 39.3782 85.2901C39.4494 85.4016 39.5168 85.5124 39.5835 85.6221C39.7374 85.8752 39.8875 86.1219 40.0712 86.355C40.5563 86.9536 41.0553 87.5313 41.5751 88.102C42.1919 88.798 42.8849 89.4941 43.578 90.1901C44.4928 91.0601 45.3729 91.8675 46.4194 92.7027C46.4971 92.7647 46.5746 92.8266 46.6519 92.8884C47.6146 93.6575 48.5441 94.4001 49.545 95.0831C52.977 97.3101 56.6685 99.1054 60.5364 100.428C61.2574 100.78 62.075 100.878 62.8581 100.707C63.1842 100.596 63.5103 100.486 63.8363 100.376C64.8963 100.019 65.9563 99.6621 67.0163 99.2522C69.3147 98.3058 71.5288 97.1649 73.6348 95.8417C76.1609 94.288 78.5043 92.4528 80.6205 90.371C82.5221 88.5227 84.2504 86.5027 85.7836 84.3366C86.9888 82.6366 88.0838 80.8604 89.0616 79.019C89.4563 78.2567 89.8032 77.4944 90.1502 76.7321C90.4367 76.1023 90.7233 75.4726 91.0368 74.8429C91.5774 73.7049 91.9893 72.5199 92.4012 71.3349C92.5385 70.9399 92.6758 70.545 92.8179 70.1517C93.1436 69.2496 93.3976 68.3235 93.6524 67.3946C93.7337 67.098 93.8151 66.8011 93.899 66.5046C94.1208 65.7181 94.3148 64.9316 94.5089 64.1381C94.5235 63.8687 94.5606 63.6009 94.6198 63.3377C94.9317 62.4658 95.1365 61.5589 95.2296 60.6372C95.299 60.2481 95.3539 59.8638 95.41 59.4716C95.4492 59.1973 95.4889 58.9191 95.5346 58.6326C95.5946 58.2612 95.663 57.8914 95.7313 57.5218C95.8601 56.825 95.9888 56.129 96.0613 55.424C96.2692 53.3777 96.4494 51.3662 96.5672 49.2782C96.6447 47.8539 96.6692 46.4253 96.6935 44.9993C96.6996 44.6412 96.7058 44.2834 96.7127 43.9258C96.7127 43.6144 96.7166 43.3038 96.7205 42.9936C96.7281 42.375 96.7358 41.7583 96.7127 41.1417C96.6818 40.34 96.6313 39.5383 96.5808 38.7366C96.5519 38.2785 96.5231 37.8204 96.4979 37.3623C96.4808 37.088 96.4743 36.8161 96.4677 36.5426C96.4582 36.15 96.4486 35.7542 96.4078 35.3439C96.3303 34.6505 96.237 33.9591 96.1437 33.2676C96.0619 32.661 95.98 32.0544 95.9088 31.4462C95.8458 30.8519 95.8065 30.2577 95.7648 29.6277C95.7469 29.3574 95.7286 29.0806 95.7078 28.7944C95.515 28.8434 95.3253 28.9038 95.1395 28.9753C94.591 29.2097 94.045 29.4491 93.4995 29.6883C92.4735 30.1381 91.4492 30.5872 90.4131 31.0007C89.9118 31.2014 89.3921 31.3526 88.8728 31.5036C88.4373 31.6303 88.0022 31.7569 87.5786 31.9125C86.1478 32.4015 84.667 32.7283 83.1639 32.8869C81.0408 33.1468 78.8955 33.1701 76.7673 32.9565C76.4401 32.8785 76.1055 32.8364 75.7693 32.8313C75.464 32.8834 75.1501 32.8422 74.8684 32.7129C74.5262 32.591 74.1767 32.4911 73.8219 32.4137C73.4583 32.3066 73.091 32.2066 72.7232 32.1064C71.8713 31.8744 71.0175 31.6418 70.2042 31.3209C68.4193 30.6481 66.704 29.8019 65.0827 28.7944C64.2511 28.2584 63.4333 27.6947 62.6155 27.1309C62.3637 26.931 62.0081 26.931 61.7562 27.1309C61.5354 27.2758 61.3144 27.4223 61.0928 27.5691C60.0698 28.2472 59.0363 28.9322 57.9653 29.5043C56.7897 30.2408 55.5311 30.8342 54.216 31.2722C53.7784 31.399 53.352 31.5533 52.9257 31.7076C52.3461 31.9174 51.7667 32.1271 51.1597 32.2675C49.4058 32.7024 47.614 32.9658 45.8095 33.054C44.8614 33.0878 43.9133 33.0441 42.9651 33.0003C42.742 32.99 42.5189 32.9797 42.2958 32.9705C40.7466 32.8748 39.2115 32.6182 37.7149 32.2048C35.2194 31.5606 32.7936 30.67 30.4727 29.5461ZM91.0299 68.4047C90.9651 68.6894 90.9165 68.9776 90.8843 69.2678C90.8247 69.4044 90.7618 69.5393 90.6989 69.6739C90.5793 69.9305 90.46 70.1863 90.3645 70.451C90.2341 70.8029 90.1094 71.1604 89.9847 71.5177C89.7715 72.1287 89.5586 72.7389 89.3181 73.3186C89.093 73.861 88.8414 74.3937 88.5904 74.9253C88.4161 75.2941 88.2422 75.6624 88.0775 76.0331C87.1717 78.0069 86.1006 79.8999 84.8757 81.6917C83.9469 83.0699 82.9196 84.3805 81.8924 85.6909C81.7317 85.8959 81.5709 86.101 81.4106 86.3063C80.5715 87.2662 79.6832 88.1815 78.7493 89.0486C76.9627 90.8081 74.987 92.3628 72.8586 93.6841C70.9899 94.9198 69.0053 95.9689 66.9331 96.8162C66.444 97.008 65.961 97.2071 65.4799 97.4054C64.809 97.6819 64.142 97.9569 63.468 98.2082C62.6635 98.5356 61.7637 98.5356 60.9592 98.2082C60.3876 97.9729 59.8129 97.744 59.2379 97.5151C58.1119 97.0666 56.9849 96.6178 55.8793 96.1201C54.8896 95.6752 53.943 95.1343 52.9957 94.593C52.802 94.4824 52.6082 94.3717 52.4141 94.2618C50.4109 93.0743 48.5223 91.7019 46.7728 90.1622C45.3736 88.9762 44.0733 87.6773 42.8849 86.2785C42.3102 85.6064 41.7869 84.8938 41.2629 84.1805C40.8645 83.6379 40.4656 83.0949 40.0435 82.5687C39.3509 81.5922 38.7146 80.5767 38.1377 79.5271C36.9568 77.609 35.9279 75.6006 35.0606 73.5205C34.4852 72.2005 34.0369 70.822 33.5906 69.4502C33.5263 69.2523 33.462 69.0545 33.3973 68.8571C32.9538 67.5347 32.5449 66.1427 32.1984 64.7506C32.0068 64.0108 31.8745 63.2535 31.7421 62.4961C31.6876 62.1846 31.6332 61.8732 31.5746 61.5629C31.5785 61.4956 31.5785 61.4283 31.5746 61.361C31.1117 59.6329 30.8169 57.8636 30.6945 56.0783C30.617 55.2391 30.5046 54.4026 30.3925 53.5672C30.3241 53.0583 30.2558 52.5498 30.1955 52.0414C30.1193 51.6098 30.1193 51.1783 30.1193 50.7468C30.0941 50.2677 30.0644 49.79 30.0347 49.3119C29.9665 48.2133 29.8981 47.1133 29.8836 45.993C29.8723 45.1168 29.898 44.2406 29.9238 43.3632C29.9453 42.6307 29.9668 41.8974 29.9668 41.1626C29.9632 41.0295 29.9493 40.8968 29.9252 40.7659C29.8816 40.612 29.8606 40.4525 29.8629 40.2926C30.0451 38.9244 30.1377 37.5456 30.1401 36.1652C30.2232 35.0585 30.3757 33.9588 30.542 32.8591C30.6321 32.2814 30.7915 32.2397 31.3252 32.4485C31.7619 32.6049 32.1986 32.7679 32.6364 32.9312C33.4839 33.2474 34.3355 33.5651 35.1992 33.8405C36.3566 34.2163 37.5416 34.5017 38.7267 34.7801C39.5792 34.982 40.4524 35.1351 41.3187 35.2534C41.6172 35.2834 41.9197 35.2851 42.222 35.2868C42.481 35.2883 42.7399 35.2898 42.9958 35.3091C45.361 35.4875 47.7394 35.34 50.0647 34.8706C53.1514 34.2625 56.1207 33.1603 58.8593 31.6063C59.1081 31.4637 59.3589 31.3251 59.6095 31.1867C60.3009 30.8045 60.9905 30.4235 61.6314 29.9637C61.9419 29.716 62.3813 29.716 62.6918 29.9637C62.7817 30.0208 62.8715 30.0781 62.9615 30.1355C63.6275 30.5604 64.2974 30.9878 64.9996 31.3557C66.2401 32.003 67.4945 32.6364 68.7835 33.1723C69.9946 33.6686 71.2324 34.0962 72.4913 34.453C73.2282 34.7336 74.011 34.8729 74.799 34.8636C75.1811 34.8585 75.5603 34.9295 75.9148 35.0724C76.6138 35.2552 77.3342 35.3418 78.0563 35.33C78.2747 35.3361 78.4946 35.3533 78.7145 35.3705C78.99 35.392 79.2658 35.4135 79.5394 35.4135C81.8877 35.396 84.2274 35.1253 86.5182 34.6061C87.3968 34.397 88.2632 34.1264 89.1231 33.8579C89.1789 33.8405 89.2346 33.8231 89.2903 33.8057C90.0564 33.5642 90.7985 33.2795 91.5391 32.9953C92.0582 32.7961 92.5766 32.5972 93.102 32.4137C93.5664 32.2536 93.7951 32.3789 93.8436 32.88C93.9683 34.0145 94.0861 35.2534 94.1693 36.3601C94.2525 37.4667 94.3218 38.5734 94.3911 39.6801C94.4396 40.2647 94.4396 40.8494 94.4396 41.434V44.2181C94.4437 44.6401 94.408 45.4657 94.3787 46.1412C94.3592 46.5911 94.3426 46.9744 94.3426 47.1275C94.3426 47.4497 94.3495 47.7603 94.3564 48.0712C94.3703 48.6938 94.3841 49.3173 94.3426 50.0368C94.3019 50.7395 94.2172 51.4214 94.1324 52.1039C94.087 52.4693 94.0416 52.8348 94.003 53.2037C93.987 53.3451 93.9798 53.488 93.9727 53.6311C93.9644 53.7978 93.956 53.9646 93.9337 54.1294C93.909 54.3239 93.8845 54.5182 93.86 54.7125C93.6914 56.0478 93.5235 57.3785 93.3238 58.7092C93.2208 59.4151 93.0754 60.1104 92.9293 60.8091C92.9083 60.9094 92.8873 61.0099 92.8664 61.1105C92.8106 61.3811 92.7563 61.6508 92.702 61.92C92.5133 62.8556 92.3254 63.7871 92.0833 64.7437C91.8882 65.5144 91.6605 66.2742 91.4326 67.035C91.2961 67.4904 91.1596 67.9461 91.0299 68.4047Z" fill="#BF1E2E"/>
<path d="M81.4174 62.0638C79.8373 62.0638 78.2502 62.0638 76.6701 62.0638C75.4712 62.0638 74.2791 61.9455 73.0802 61.9316C72.0406 61.9316 71.0011 61.9942 69.9685 62.022C69.6705 62.022 69.3794 62.022 69.0883 62.022C68.2373 61.9977 67.3856 62.0256 66.538 62.1056C65.5926 62.1357 64.6464 62.0821 63.7104 61.9455C62.9069 61.8294 62.0899 61.8459 61.2917 61.9942C60.9117 62.0359 60.5283 62.0359 60.1482 61.9942H50.2309C48.9904 61.9942 47.7499 62.0916 46.5163 61.9942C45.8232 61.9455 45.1787 62.196 44.5342 61.8689C43.9234 62.0411 43.2828 62.0791 42.6561 61.9803C41.575 61.9803 40.4938 61.9803 39.4127 61.9803H34.5615C34.0486 61.9803 34.0209 61.9246 33.9516 61.3399C33.8199 60.1637 33.612 59.0013 33.4873 57.8599C33.2932 56.0224 33.1338 54.1779 32.9814 52.2917C32.919 51.4495 32.9814 50.5795 32.8705 49.7512C32.7251 48.2503 32.6765 46.7414 32.7249 45.2341C32.7249 44.0091 32.8428 42.7841 32.9121 41.5591C32.9121 41.0997 32.9121 40.6334 32.9814 40.1671C33.0645 39.1439 33.1616 38.1208 33.2447 37.0976C33.2447 36.8192 33.2447 36.5339 33.2932 36.2485C33.2932 35.6987 33.4873 35.5525 33.9447 35.7265C35.3307 36.1371 36.7168 36.5965 38.1029 36.9306C39.1355 37.1812 40.182 37.2717 41.2492 37.4317C41.9423 37.5361 42.6353 37.6823 43.3283 37.731C44.0214 37.7797 44.7144 37.731 45.4074 37.731C46.8291 37.7637 48.2504 37.6494 49.6488 37.39C50.7468 37.2376 51.8363 37.0285 52.913 36.7636C54.0073 36.4419 55.0717 36.025 56.094 35.5177C57.7768 34.7657 59.3693 33.8247 60.8413 32.7127C61.2069 32.4298 61.6076 32.1958 62.0333 32.0167C62.2254 31.973 62.427 32.0135 62.5877 32.1281C63.2807 32.5596 63.8975 33.0329 64.549 33.4853C66.6938 34.986 69.0738 36.1153 71.5902 36.8262C72.7753 37.1533 73.9811 37.3273 75.1801 37.5222C76.7629 37.7767 78.3678 37.8653 79.9689 37.7867C80.96 37.7867 81.951 37.6336 82.942 37.5222C84.9713 37.2992 86.9729 36.8701 88.916 36.2415L90.5377 35.7265C90.8218 35.636 90.9743 35.7752 91.002 36.1023C91.106 37.2508 91.2238 38.3992 91.3208 39.5824C91.404 40.4803 91.501 41.3782 91.5287 42.276C91.6292 43.5547 91.6292 44.8394 91.5287 46.118C91.4663 46.6331 91.6049 47.1829 91.5772 47.7189C91.5079 49.1527 91.3832 50.5865 91.2931 52.0272C91.2931 52.3822 91.2931 52.7232 91.2931 53.0921C91.2931 53.7882 91.2168 54.4285 91.1475 55.0897C91.0228 56.4817 90.8842 57.8738 90.7317 59.2658C90.6555 59.9618 90.5446 60.6578 90.4406 61.3539C90.3921 61.6531 90.2605 61.8898 89.9555 61.9107C89.3041 61.9664 88.6526 62.0638 88.0012 62.0708C85.8112 62.0708 83.6143 62.0708 81.4174 62.0708V62.0638Z" fill="#BF1E2E"/>
<rect x="44.5481" y="40.8564" width="0.852432" height="19.2519" fill="#F8AC26"/>
<path d="M52.5734 59.9761L51.8804 60.1083H59.878C57.471 59.6219 54.9962 59.5771 52.5734 59.9761V59.9761Z" fill="#F8AC26"/>
<path d="M53.5437 58.3821C51.6524 58.7991 49.7209 59.0045 47.7846 58.9946H47.438V40.6963C46.9668 40.6963 46.5163 40.7381 46.1074 40.6963V59.969C48.2263 59.9547 50.3394 59.7474 52.4209 59.3496C55.3636 58.8385 58.3828 58.9955 61.2571 59.8089V59.1616C58.7966 58.2353 56.1386 57.9666 53.5437 58.3821V58.3821Z" fill="#F8AC26"/>
<path d="M57.9168 38.4966C56.6253 38.585 55.342 38.7688 54.0774 39.0464C52.126 39.4644 50.1398 39.6974 48.145 39.7425V58.3261C49.9054 58.3133 51.6603 58.1268 53.3843 57.7693C54.1978 57.5984 55.0274 57.5168 55.8585 57.5257C57.6977 57.5191 59.525 57.8226 61.2641 58.4236V58.4236V39.5893C60.2786 38.9045 59.1149 38.5246 57.9168 38.4966Z" fill="#F8AC26"/>
<rect x="78.0632" y="40.8564" width="0.852425" height="19.2519" fill="#F8AC26"/>
<path d="M70.8903 59.976L71.5833 60.1083H63.5857C65.9927 59.622 68.4674 59.5772 70.8903 59.976V59.976Z" fill="#F8AC26"/>
<path d="M69.9199 58.3821C71.8135 58.7992 73.7473 59.0046 75.6859 58.9946H76.0255V40.6963C76.4968 40.6963 76.9472 40.7381 77.3631 40.6963V59.969C75.2419 59.9551 73.1264 59.7478 71.0426 59.3496C68.1023 58.8381 65.0853 58.9951 62.2134 59.8089V59.1616C64.6713 58.2346 67.3272 57.9659 69.9199 58.3821Z" fill="#F8AC26"/>
<path d="M65.5469 38.4966C66.8407 38.5847 68.1263 38.7684 69.3932 39.0464C71.3447 39.4639 73.3308 39.697 75.3255 39.7425V58.3261C73.5652 58.313 71.8103 58.1265 70.0862 57.7693C69.2727 57.5984 68.4432 57.5168 67.6121 57.5257C65.7751 57.5182 63.9499 57.8218 62.2134 58.4236V58.4236V39.5893C63.1957 38.9085 64.3538 38.5289 65.5469 38.4966V38.4966Z" fill="#F8AC26"/>
<mask id="mask0_19_11888" style="mask-type:luminance" maskUnits="userSpaceOnUse" x="34" y="64" width="56" height="32">
<path fill-rule="evenodd" clip-rule="evenodd" d="M34.312 64.458C34.312 64.458 39.6691 89.0205 61.2848 95.6535C61.2848 95.6535 82.2144 93.7116 89.2487 64.8547L34.312 64.458Z" fill="white"/>
</mask>
<g mask="url(#mask0_19_11888)">
<path d="M23.9997 97.9924H16.3694L40.1404 59.0015H47.7707L23.9997 97.9924V97.9924Z" fill="#1F3E71"/>
<path d="M40.2443 97.9924H32.614L56.385 59.0015H64.0084L40.2443 97.9924V97.9924Z" fill="#1F3E71"/>
<path d="M56.482 97.9924H48.8586L72.6227 59.0015H80.253L56.482 97.9924V97.9924Z" fill="#1F3E71"/>
<path d="M72.7267 97.9924H65.0964L88.8674 59.0015H96.4977L72.7267 97.9924V97.9924Z" fill="#1F3E71"/>
</g>
<path d="M52.1576 46.9814C52.1163 46.5355 52.1928 46.0865 52.3794 45.6798C52.5368 45.436 52.6144 45.1488 52.6011 44.8585C52.6321 44.4102 52.4134 43.9814 52.0328 43.7449C51.6112 43.4928 51.0934 43.4642 50.6468 43.6683C50.3342 43.7922 50.012 43.89 49.6835 43.9606C49.5657 43.9606 49.4756 43.898 49.4201 43.7449C49.3647 43.5918 49.6072 43.2438 50.1131 42.7565L50.2795 42.5895C50.337 42.5307 50.3996 42.4771 50.4666 42.4294L50.6468 42.3041C50.7121 42.2502 50.7875 42.2099 50.8686 42.1858L51.1319 42.1232C51.2416 42.0885 51.3571 42.0767 51.4715 42.0884H51.8735C52.0461 42.1007 52.2175 42.1263 52.3863 42.1649C52.5665 42.2067 52.7675 42.2624 53.0031 42.332C53.2387 42.4016 53.4813 42.4851 53.7377 42.5825C54.0778 42.7205 54.4342 42.8141 54.798 42.8609C55.0678 42.8277 55.3263 42.7324 55.5535 42.5825C55.7541 42.4579 55.9744 42.3685 56.2049 42.318C56.3679 42.3271 56.5226 42.3936 56.6415 42.506C56.9425 42.7578 57.3119 42.913 57.7019 42.9514C58.2272 42.9801 58.7537 42.9237 59.2612 42.7844C60.1136 42.5825 60.5918 42.5477 60.6819 42.6869C60.772 42.8261 60.6472 42.8679 60.474 43.0767C60.2698 43.3228 60.0499 43.5553 59.8156 43.7727C59.3583 44.2082 58.812 44.5383 58.2147 44.7402C57.5792 44.8936 56.9198 44.9197 56.2742 44.8168C55.6643 44.7263 55.2554 44.8168 55.0475 45.1021C54.7858 45.6767 54.6806 46.3108 54.7426 46.9396C54.6695 47.4899 54.712 48.0494 54.8674 48.5822C54.9713 48.6866 55.3733 48.5404 56.0802 48.1507C56.3973 47.9599 56.7405 47.8169 57.0989 47.7261C57.416 47.7031 57.7345 47.7457 58.0345 47.8514C58.6444 48.0184 58.984 48.1855 59.0533 48.3595C59.1226 48.5335 58.9354 48.8049 58.5058 49.1877C58.3061 49.3928 58.0714 49.5602 57.8127 49.6819C57.636 49.7166 57.4529 49.6763 57.3068 49.5706C56.6543 49.1324 55.7846 49.2168 55.2277 49.7724C54.985 49.9621 54.806 50.2221 54.7149 50.5171C54.6259 51.1161 54.5841 51.7212 54.5901 52.3268C54.5347 54.3499 54.209 55.5308 53.613 55.8695C53.5021 55.9391 53.2457 55.8695 52.8368 55.6189C52.5064 55.4015 52.0943 55.3501 51.721 55.4797C51.326 55.605 51.1319 55.8278 51.1319 56.1758C51.1319 56.7187 50.8616 56.7187 50.328 56.1758C49.9922 55.8629 49.8943 55.3689 50.0854 54.9508C50.3189 54.3845 50.7536 53.9256 51.3052 53.6631L52.1715 53.155L52.116 51.8187C52.0814 51.074 51.9774 50.6424 51.8249 50.5241C51.6725 50.4058 51.2497 50.4475 50.5844 50.6494C50.3211 50.719 50.1755 50.7329 50.1339 50.6911C50.0924 50.6494 50.1339 50.4823 50.1894 50.197C50.4091 49.6649 50.7773 49.2081 51.2497 48.8815C51.5468 48.6639 51.8006 48.3925 51.9982 48.0811C52.1205 47.728 52.1746 47.3548 52.1576 46.9814V46.9814Z" fill="#BF1E2E"/>
<path fill-rule="evenodd" clip-rule="evenodd" d="M64.3619 42.3248C64.098 42.3995 63.8587 42.5436 63.6689 42.7424C63.4309 42.958 63.2559 43.2347 63.163 43.5428C63.0694 43.7502 63.1075 43.9937 63.26 44.1623C63.3501 44.2458 63.6135 44.1762 64.0432 43.9535C64.2384 43.8432 64.4522 43.7701 64.6738 43.7377C64.8806 43.7429 65.0839 43.7927 65.2698 43.8838L65.8797 44.1344V49.619L65.1867 50.2037C64.7223 50.5726 64.5075 50.8927 64.4936 51.0389C64.4798 51.1851 64.5768 51.2477 64.9441 51.0389C65.3114 50.8301 65.5609 50.844 65.6787 51.0389C65.8377 51.4845 65.8992 51.9593 65.8589 52.4309C65.879 52.8481 65.8511 53.2661 65.7757 53.6768C65.6965 53.8663 65.5315 54.0061 65.3322 54.0527C65.0513 54.1693 64.7914 54.3316 64.5629 54.5329C64.3041 54.7483 64.0715 54.9936 63.8699 55.2637C63.7036 55.5073 63.662 55.6744 63.759 55.6744C63.9974 55.7055 64.2394 55.6617 64.452 55.5491C64.7768 55.3753 65.1474 55.3072 65.5124 55.3542C65.8575 55.385 66.1962 55.4671 66.5173 55.5978L67.3558 55.9598C67.536 56.0607 67.7335 56.1268 67.938 56.1546C68.3394 55.9606 68.705 55.6994 69.0191 55.3821C69.629 54.8809 69.9409 54.5747 69.9409 54.4772C69.9409 54.3798 69.6636 54.2684 69.1023 54.1501L68.236 53.9483L68.1528 52.4031C68.0588 51.8161 68.116 51.2146 68.3192 50.6561C68.4716 50.5239 68.8667 50.5726 69.5597 50.8092C70.0725 50.9664 70.5502 51.2216 70.9665 51.5609C71.1292 51.7859 71.3833 51.9262 71.6596 51.9437C71.9581 51.858 72.2224 51.6803 72.415 51.4356C72.6232 51.2522 72.8566 51.0998 73.108 50.9832C73.2879 50.89 73.4758 50.8131 73.6694 50.7535C73.7816 50.7302 73.8835 50.6718 73.9604 50.5865C74.0287 50.4786 74.0441 50.3452 74.002 50.2246C73.8646 49.1166 73.8183 47.9992 73.8634 46.8837V43.9743L72.6922 43.2157C72.2777 42.8768 71.809 42.6109 71.3061 42.4292C70.8981 42.5591 70.5225 42.7751 70.2042 43.0625C69.8102 43.389 69.3269 43.5879 68.8181 43.6333C68.6522 43.6612 68.4823 43.6173 68.3503 43.5126C68.2183 43.4079 68.1365 43.252 68.1251 43.0834C68.1262 42.849 67.9827 42.6384 67.7647 42.5545C67.1409 42.4289 66.5084 42.3521 65.8728 42.3248C65.3704 42.2752 64.8643 42.2752 64.3619 42.3248ZM70.3567 44.1623C70.5773 44.2133 70.7865 44.3054 70.9735 44.4337C71.212 44.5592 71.3914 44.7744 71.4725 45.0323C71.5525 45.7252 71.5803 46.4232 71.5556 47.1203C71.6144 47.9321 71.5724 48.748 71.4309 49.5494C70.8686 49.5615 70.3084 49.4767 69.7745 49.2989L68.236 48.9439V47.2735C68.1919 46.6622 68.2745 46.0484 68.4786 45.4708C68.7633 45.0553 69.1532 44.7237 69.6082 44.5103C69.8361 44.3522 70.0892 44.2345 70.3567 44.1623Z" fill="#BF1E2E"/>
<path d="M105.362 83.5222C103.806 84.9107 102.543 86.5981 101.647 88.4848C102.79 88.5474 103.775 88.6866 104.745 88.6448C108.515 88.4708 111.592 86.7308 114.177 84.1207C116.256 82.0327 118.204 79.7219 120.276 77.439C117.871 78.135 115.528 78.7127 113.221 79.4157C110.334 80.1924 107.652 81.594 105.362 83.5222V83.5222Z" fill="#F8AC26"/>
<path d="M95.9849 93.8023C94.3057 95.0319 92.8913 96.5897 91.8267 98.3821C92.9563 98.5492 93.9058 98.7858 94.8968 98.8346C98.66 99.0294 101.889 97.5887 104.717 95.2431C107.004 93.336 109.146 91.248 111.426 89.1738C108.958 89.6123 106.574 89.9812 104.211 90.4615C101.258 90.9546 98.4493 92.0953 95.9849 93.8023V93.8023Z" fill="#F8AC26"/>
<path d="M22.7937 88.3943C21.961 86.6564 20.8196 85.0855 19.4256 83.7588C17.6713 82.1073 15.5777 80.8623 13.2922 80.1117C10.3261 79.1164 7.30445 78.2812 4.22046 77.3276C5.77285 79.0955 7.20743 80.7381 8.64893 82.3668C10.4056 84.4868 12.5876 86.2109 15.0525 87.4269C17.4557 88.5993 20.1778 88.9395 22.7937 88.3943Z" fill="#F8AC26"/>
<path d="M12.142 75.6226C12.9806 75.8453 13.8538 75.9288 14.831 76.1028C14.3012 73.1395 12.921 70.3962 10.8599 68.21C7.96999 65.1962 4.28999 63.4283 0.713941 61.5491V61.5491L0.45752 61.5073L0.575335 61.7231C1.23141 62.9898 1.88748 64.2589 2.54355 65.5303C3.15341 66.7205 3.68705 67.9594 4.37315 69.1009C6.18196 72.1703 8.55213 74.6551 12.142 75.6226Z" fill="#F8AC26"/>
<path d="M123.727 61.5349C121.253 62.9269 118.709 64.319 116.325 65.8572C113.192 67.8598 110.927 70.9772 109.984 74.5852C109.859 75.0376 109.776 75.504 109.603 76.2696C111.012 75.9633 112.4 75.5704 113.761 75.0933C117.109 73.7013 119.195 70.9172 120.837 67.806C121.939 65.718 122.979 63.6299 124.053 61.5419C123.946 61.5153 123.835 61.5129 123.727 61.5349Z" fill="#F8AC26"/>
<path d="M114.025 62.1125C114.119 62.123 114.214 62.123 114.309 62.1125C114.518 62.0557 114.724 61.9884 114.926 61.9107C117.867 60.8457 120.164 58.4903 121.163 55.5143C121.865 53.2955 122.443 51.0392 122.895 48.7559C123.166 47.6284 123.381 46.4939 123.623 45.3594C121.911 46.9324 120.158 48.4358 118.495 50.0853C115.226 53.1797 113.574 57.6238 114.025 62.1125V62.1125Z" fill="#F8AC26"/>
<path d="M1.71167 50.0298C2.25223 53.0297 2.99378 55.939 4.87189 58.4238C6.2358 60.2827 8.19242 61.6165 10.4161 62.2032C10.7663 58.7563 9.87098 55.298 7.89351 52.4589C5.95995 49.6748 3.39573 47.5868 0.859238 45.4152V45.4152L0.672119 45.2412L0.748353 45.5405C1.07408 47.0578 1.44831 48.5334 1.71167 50.0298Z" fill="#F8AC26"/>
<path d="M114.454 38.7126C113.423 41.7711 113.492 45.0959 114.648 48.1089C115.022 47.8861 115.341 47.733 115.584 47.5381C118.14 45.7652 119.689 42.8626 119.742 39.7427C119.867 37.2649 119.624 34.7732 119.548 32.2814C119.548 31.662 119.548 31.0425 119.548 30.1934C117.51 33.0331 115.535 35.6014 114.454 38.7126Z" fill="#F8AC26"/>
<path d="M9.7994 48.095C11.0333 44.9002 11.0333 41.3576 9.7994 38.1628C8.66283 35.3161 6.88174 32.88 5.06599 30.4648C5.06599 30.4648 4.96204 30.4648 5.01748 30.4648C4.87194 32.6712 4.69868 34.8428 4.59473 37.0213C4.43289 39.272 4.79841 41.5294 5.662 43.6126C6.47724 45.5464 7.94112 47.1323 9.7994 48.095V48.095Z" fill="#F8AC26"/>
<path d="M32.6696 95.431C32.7459 95.1248 32.8152 94.8812 32.8567 94.6376C32.8983 94.394 32.8567 94.1991 32.9053 93.9833C33.0596 91.0942 32.3082 88.2292 30.7569 85.7912C29.1629 83.0907 27.5551 80.404 25.968 77.7383C25.8848 78.8797 25.7532 80.1117 25.7185 81.3506C25.549 84.1011 25.9575 86.8567 26.9175 89.4383C27.9915 92.1075 30.053 94.2553 32.6696 95.431V95.431Z" fill="#F8AC26"/>
<path d="M32.1844 97.6094C31.0837 96.0355 29.7105 94.6729 28.1301 93.5864C26.1405 92.2282 23.8792 91.3231 21.5047 90.9346C18.4208 90.4126 15.309 90.0507 12.1211 89.6052L17.2634 93.9066C19.3272 95.7255 21.7468 97.091 24.367 97.9157C26.9347 98.6852 29.6841 98.5775 32.1844 97.6094V97.6094Z" fill="#F8AC26"/>
<path d="M43.3352 108.467C42.2345 106.893 40.8613 105.531 39.281 104.444C37.2921 103.088 35.0341 102.181 32.6626 101.786C29.5786 101.264 26.4668 100.902 23.272 100.463L28.4351 104.758C30.4971 106.579 32.9173 107.945 35.5386 108.767C38.0992 109.534 40.8405 109.428 43.3352 108.467Z" fill="#F8AC26"/>
<path d="M44.4719 106.052C44.4719 105.739 44.5342 105.488 44.5412 105.238C44.5481 104.987 44.4996 104.806 44.4857 104.584C44.1959 101.706 43.0156 98.992 41.1107 96.8229C39.1217 94.4008 37.1188 91.9926 35.1367 89.6052C35.2337 90.7467 35.2892 91.9856 35.4486 93.2176C35.7019 95.9607 36.5285 98.6193 37.8742 101.02C39.3396 103.494 41.7056 105.298 44.4719 106.052V106.052Z" fill="#F8AC26"/>
<path d="M22.3364 85.6103C23.499 83.3088 23.8857 80.6903 23.4384 78.149C22.6552 74.1817 21.6226 70.2701 20.6662 66.1914C20.2989 67.2215 19.9732 68.0915 19.6891 68.9755C18.6287 72.4556 17.8595 75.9357 18.705 79.5549C19.2527 81.9061 20.5232 84.0246 22.3364 85.6103V85.6103Z" fill="#F8AC26"/>
<path d="M92.2286 88.9371C91.4708 91.0243 91.3005 93.2808 91.7366 95.4588C94.1422 94.3368 96.097 92.4275 97.2808 90.0438C98.861 86.9535 98.9926 80.7659 98.3828 77.9331C96.9205 80.3692 95.3542 82.9027 93.8642 85.4849C93.2317 86.5918 92.6849 87.746 92.2286 88.9371Z" fill="#F8AC26"/>
<path d="M85.4856 103.63C83.6795 104.67 82.1003 106.064 80.8423 107.73C81.9442 108.022 82.8798 108.356 83.8431 108.509C87.5647 109.115 90.9328 108.036 93.996 106.011C96.4771 104.368 98.8473 102.53 101.321 100.714C98.8265 100.881 96.4147 100.985 94.0099 101.208C91.0258 101.377 88.1154 102.204 85.4856 103.63V103.63Z" fill="#F8AC26"/>
<path d="M82.2767 98.382C81.3015 100.376 80.8892 102.6 81.0847 104.813C83.5974 103.958 85.7473 102.272 87.1834 100.032C89.0892 97.1361 89.8862 90.9833 89.5813 88.1157C87.8695 90.3778 86.0399 92.7303 84.2796 95.1316C83.5296 96.1616 82.8599 97.2483 82.2767 98.382Z" fill="#F8AC26"/>
<path d="M105.75 79.5199C106.776 74.9053 105.362 70.6527 103.671 66.4487C103.518 67.27 103.394 68.0983 103.2 68.9057C102.506 71.9333 101.606 74.9262 101.023 77.9539C100.55 80.5562 100.93 83.2425 102.105 85.6101C103.945 84.0303 105.224 81.893 105.75 79.5199Z" fill="#F8AC26"/>
<path d="M12.6963 34.8011C13.97 33.0407 14.815 31.0049 15.1635 28.8571C15.7803 24.681 14.1101 21.0617 12.6963 17.3867C12.2251 18.7788 11.7122 20.1708 11.3103 21.5628C10.6911 23.4778 10.2162 25.4368 9.88956 27.4233C9.50908 30.2026 10.5675 32.9847 12.6963 34.8011V34.8011Z" fill="#F8AC26"/>
<path d="M112.479 34.1049C114.801 31.46 115.029 28.3349 114.226 25.1332C113.574 22.5301 112.611 20.0106 111.779 17.4771C110.787 19.8371 109.987 22.2742 109.388 24.7644C108.584 28.3976 109.589 31.7245 111.765 34.8775C112.063 34.5364 112.292 34.3207 112.479 34.1049Z" fill="#F8AC26"/>
<path d="M106.748 67.7852C107.181 69.87 108.135 71.8099 109.52 73.423C110.096 72.0389 110.573 70.6154 110.947 69.1634C112.015 63.2472 108.993 58.6813 105.971 54.1851C106.027 57.0875 106.034 59.9829 106.159 62.8714C106.237 64.5214 106.434 66.1637 106.748 67.7852V67.7852Z" fill="#F8AC26"/>
<path d="M18.2337 54.554C16.3118 57.0906 14.8267 59.9325 13.8399 62.9619C12.7188 66.4026 13.1677 70.1649 15.0665 73.2421C16.4456 71.6414 17.3676 69.6957 17.7347 67.6113C18.041 65.2327 18.2261 62.8399 18.2891 60.4423C18.3792 58.4378 18.2891 56.4333 18.2891 54.4984C18.3654 54.4496 18.2822 54.4914 18.2337 54.554Z" fill="#F8AC26"/>
<path d="M22.6067 17.7625C23.7571 14.4425 23.2997 11.0669 22.9324 7.67725C21.8097 9.23633 20.6177 10.7049 19.6336 12.3058C18.7065 13.7436 17.9395 15.2794 17.3466 16.8856C16.5456 19.1516 16.9058 21.6683 18.3099 23.6161C20.2635 22.1113 21.7532 20.0819 22.6067 17.7625Z" fill="#F8AC26"/>
<path d="M106.124 23.5811C106.916 22.4489 107.373 21.1143 107.441 19.7321C107.572 16.8576 106.367 14.4633 104.78 12.2082C103.719 10.7048 102.631 9.22922 101.557 7.73975C100.621 13.6768 100.698 19.3772 106.124 23.5811Z" fill="#F8AC26"/>
<path d="M19.2109 42.5823C15.822 45.429 12.7033 48.4984 11.3658 52.8972C10.7007 55.0483 10.7007 57.3514 11.3658 59.5024C11.5697 59.3769 11.7664 59.2398 11.9549 59.0918C13.4845 57.8434 14.6862 56.2375 15.4547 54.4146C16.8892 50.5169 18.1298 46.5496 19.4604 42.5823C19.3218 42.5892 19.2456 42.5544 19.2109 42.5823Z" fill="#F8AC26"/>
<path d="M113.02 59.6556C113.627 57.793 113.73 55.8015 113.318 53.8857C112.188 48.9091 108.834 45.5334 105.078 42.4779V42.4779L104.904 42.4014L104.987 42.5615C105.861 45.3826 106.736 48.2015 107.614 51.0181C108.248 53.3367 109.342 55.5029 110.83 57.3866C111.467 58.1522 112.209 58.8274 113.02 59.6556Z" fill="#F8AC26"/>
<path d="M102.174 33.2557C103.809 35.7614 105.376 38.3088 107.067 40.7727C108.568 42.9572 110.623 44.6993 113.02 45.8189C113.02 45.4987 113.068 45.3177 113.061 45.1228C112.992 42.5384 112.04 40.0563 110.365 38.0931C107.891 35.1002 104.62 33.2209 101.134 31.7036C101.446 32.2674 101.841 32.7128 102.174 33.2557Z" fill="#F8AC26"/>
<path d="M12.4539 40.6751C11.6653 42.2307 11.3154 43.9733 11.4421 45.7143C13.3049 45.0031 14.9424 43.801 16.1824 42.2342C18.6011 38.8446 20.8881 35.3576 23.2236 31.9053L23.1197 31.7939C20.9574 33.0468 18.7328 34.2161 16.6537 35.629C14.8156 36.8882 13.3617 38.6351 12.4539 40.6751Z" fill="#F8AC26"/>
<path d="M97.5304 14.4147C98.2321 12.3861 97.9528 10.1449 96.775 8.35242C94.9524 5.34562 91.7367 3.98143 89.2002 1.68457C89.9279 7.32927 91.702 12.1736 97.5304 14.4147Z" fill="#F8AC26"/>
<path d="M35.2269 1.71924C33.4804 3.02775 31.6716 4.23882 30.043 5.6587C29.0243 6.57143 28.144 7.62899 27.4302 8.79774C26.3946 10.4888 26.2024 12.5679 26.9105 14.4216C32.7805 12.1247 34.5338 7.27346 35.2269 1.71924Z" fill="#F8AC26"/>
<path d="M109.672 33.0399C109.251 31.2826 108.393 29.6613 107.177 28.3279C103.858 24.7713 99.4294 23.7133 94.7029 22.7598C95.59 23.4558 96.3107 23.9917 96.983 24.5694C99.2561 26.5113 101.46 28.5367 103.789 30.402C105.507 31.749 107.527 32.6545 109.672 33.0399V33.0399Z" fill="#F8AC26"/>
<path d="M29.4747 22.8711C29.1073 22.9268 28.74 22.9685 28.3797 23.0451C24.9145 23.7411 21.5602 24.7225 18.7188 26.9637C16.792 28.4525 15.4103 30.5401 14.7893 32.9007C14.9071 32.9425 14.9695 32.9842 15.018 32.9773C15.2029 32.9566 15.3859 32.9217 15.5655 32.8729C17.5078 32.4099 19.3248 31.5236 20.888 30.2767C23.8126 27.8685 26.654 25.3628 29.5232 22.8989C29.5162 22.8989 29.4954 22.8711 29.4747 22.8711Z" fill="#F8AC26"/>
<path d="M87.135 16.6559C87.9277 17.131 88.7574 17.5406 89.6161 17.8809C91.8961 18.9389 94.1346 20.0804 96.4424 21.0757C98.7055 22.1136 101.187 22.5795 103.671 22.4329C102.776 20.8644 101.494 19.5534 99.9492 18.6257C97.571 17.2466 94.871 16.526 92.1248 16.5376C90.4616 16.5098 88.7983 16.6211 87.135 16.6559Z" fill="#F8AC26"/>
<path d="M37.2643 16.8714C37.2643 16.8714 37.2643 16.767 37.3198 16.7183C28.3727 15.8274 23.376 18.0268 20.8118 22.4396C23.3299 22.5809 25.8444 22.103 28.1371 21.0475C31.2072 19.6833 34.2219 18.2634 37.2643 16.8714Z" fill="#F8AC26"/>
<path d="M87.3982 8.49142C87.5444 7.01553 87.0376 5.54965 86.0121 4.48235C85.031 3.49708 83.8896 2.68733 82.637 2.08805C80.7173 1.25283 78.659 0.744739 76.6631 0.0974425L76.6215 0.132243L76.6631 0.0974425L76.5522 0L76.4829 0.0487212L76.6077 0.146164C78.2917 4.87212 83.2192 8.70022 87.3982 8.49142Z" fill="#F8AC26"/>
<path d="M47.8401 0.166992C45.6848 0.86301 43.481 1.42678 41.3949 2.29681C40.2523 2.84265 39.2261 3.60616 38.3733 4.54494C37.3583 5.61477 36.8816 7.08942 37.0773 8.55401C42.2404 8.00415 45.2759 5.60985 47.8401 0.166992Z" fill="#F8AC26"/>
<path d="M95.0839 14.1642C91.0921 10.2317 84.633 10.5031 78.271 13.2315C79.7333 13.4125 81.1679 13.5935 82.6094 13.7605C85.3191 14.0807 88.022 14.4913 90.7386 14.6584C92.1983 14.6165 93.6519 14.4512 95.0839 14.1642Z" fill="#F8AC26"/>
<path d="M29.4678 14.0176C31.3692 14.6347 33.3796 14.8387 35.3655 14.6161C38.9692 14.1985 42.5591 13.6765 46.3015 13.1754C45.4699 12.8831 44.7561 12.6047 44.0353 12.375C40.9582 11.4005 37.8396 10.7672 34.6031 11.3797C32.6693 11.7298 30.8823 12.6477 29.4678 14.0176Z" fill="#F8AC26"/>
<path d="M0.408889 61.4863L0.284143 61.4027L0.395028 61.5071V61.5071V61.5071L0.408889 61.4863Z" fill="#F8AC26"/>
<path d="M62.1719 103.818L63.7035 108.558H68.6656L64.6461 111.481L66.1846 116.221L62.1719 113.291L58.1593 116.221L59.6909 111.481L55.6782 108.558H60.6334L62.1719 103.818V103.818Z" fill="#F8AC26"/>
</svg>
